# xmcd
#
# Track frame offsets: 
#        150
#        14757
#        32312
#        51645
#        77182
#        95745
#        118142
#        138812
#        176042
#        188145
#        204520
#        221395
#        234537
#        251970
#        270822
#
# Disc length: 3861 seconds
#
# Revision: 1
# Processed by: cddbd v1.5.2PL0 Copyright (c) Steve Scherf et al.
# Submitted via: ExactAudioCopy v0.99pb5
#
DISCID=d70f130f
DTITLE=Various Artist - עד אור הבוקר מסיבת ריקודים
DYEAR=1900
DGENRE=ישראלי
TTITLE0=משינה - ריקוד המכונה
TTITLE1=בנזין - חופשי זה לגמרי לבד
TTITLE2=יהודית רביץ - בוא לריו
TTITLE3=צביקה פיק - אהבה בסוף הקיץ
TTITLE4=תיסלם - רדיו חזק
TTITLE5=ריקי גל - לגור איתו
TTITLE6=דודה - לידיה הלוהטת
TTITLE7=דויד ברוזה - הרומבה
TTITLE8=איז הופ - יש לו מסיבה
TTITLE9=משינה - רכבת לילה
TTITLE10=הקליק - אינקובטור
TTITLE11=שבק ס - אימפריה
TTITLE12=סילברדון - סלמה יא סלמה
TTITLE13=אלון אולארצ'יק - בן-בסט
TTITLE14=אתי אנקרי - אשבו
EXTD=
EXTT0=
EXTT1=
EXTT2=
EXTT3=
EXTT4=
EXTT5=
EXTT6=
EXTT7=
EXTT8=
EXTT9=
EXTT10=
EXTT11=
EXTT12=
EXTT13=
EXTT14=
PLAYORDER=
